<?xml version="1.0" encoding="UTF-8" standalone="no"?>
<!-- Created with Inkscape (http://www.inkscape.org/) -->

<svg
   xmlns:dc="http://purl.org/dc/elements/1.1/"
   xmlns:cc="http://creativecommons.org/ns#"
   xmlns:rdf="http://www.w3.org/1999/02/22-rdf-syntax-ns#"
   xmlns:svg="http://www.w3.org/2000/svg"
   xmlns="http://www.w3.org/2000/svg"
   xmlns:sodipodi="http://sodipodi.sourceforge.net/DTD/sodipodi-0.dtd"
   xmlns:inkscape="http://www.inkscape.org/namespaces/inkscape"
   version="1.1"
   id="svg2"
   inkscape:version="0.48.4 r9939"
   width="50"
   height="50"
   sodipodi:docname="nestor.svg">
  <metadata
     id="metadata17">
    <rdf:RDF>
      <cc:Work
         rdf:about="">
        <dc:format>image/svg+xml</dc:format>
        <dc:type
           rdf:resource="http://purl.org/dc/dcmitype/StillImage" />
      </cc:Work>
    </rdf:RDF>
  </metadata>
  <defs
     id="defs15">
    <filter
       inkscape:collect="always"
       id="filter3859">
      <feGaussianBlur
         inkscape:collect="always"
         stdDeviation="0.96"
         id="feGaussianBlur3861" />
    </filter>
  </defs>
  <sodipodi:namedview
     pagecolor="#ffffff"
     bordercolor="#666666"
     borderopacity="1"
     objecttolerance="10"
     gridtolerance="10"
     guidetolerance="10"
     inkscape:pageopacity="0"
     inkscape:pageshadow="2"
     inkscape:window-width="1920"
     inkscape:window-height="1021"
     id="namedview13"
     showgrid="false"
     inkscape:zoom="13.350176"
     inkscape:cx="-3.7855324"
     inkscape:cy="24.953183"
     inkscape:window-x="0"
     inkscape:window-y="27"
     inkscape:window-maximized="1"
     inkscape:current-layer="svg2" />
  <path
     style=""
     d="m 3.0136001,21.038 8.8591999,0 0,16.976999 -8.8591999,0 z"
     id="rect1" />
  <path
     style="fill:#ffd200"
     d="m 11.874,21.038 8.859199,0 0,20.633 -8.859199,0 z"
     id="rect2" />
  <path
     style=""
     d="m 20.733,21.038 8.8603,0 0,27.943001 -8.8603,0 z"
     id="rect3" />
  <path
     style="fill:#ffd200"
     d="m 29.593,21.038 8.8592,0 0,23.070999 -8.8592,0 z"
     id="rect4" />
  <path
     style=""
     d="m 38.452999,21.038 8.8603,0 0,18.193001 -8.8603,0 z"
     id="rect5" />
  <path
     d="m23.532,7.8378c0,3.2314-2.6325,5.8546-5.878,5.8546h-12.734c-2.1657,0-3.9195-1.748-3.9195-3.905,0-2.1571,1.7538-3.9016,3.9195-3.9016,2.1633,0,3.9183,1.7445,3.9183,3.9016,0,1.1688-0.5148,2.2129-1.3291,2.9285h2.3096c0.97811,0,1.9586-1.952,1.9586-4.8793v-0.98c0-3.2338,2.6325-5.8535,5.8769-5.8535,3.2467,0,5.878,2.6197,5.878,5.8535v0.9812z"
     id="path9" />
  <path
     d="m26.471,6.8378c0-3.2338,2.6313-5.8534,5.8769-5.8534s5.878,2.6196,5.878,5.8534v0.9801c0,2.9273,0.98045,4.8792,1.9586,4.8792h2.3084c-0.81314-0.7143-1.3291-1.7596-1.3291-2.9285,0-2.157,1.755-3.9015,3.9183-3.9015,2.1645,0,3.9183,1.7445,3.9183,3.9015,0,2.1571-1.7538,3.9051-3.9183,3.9051h-12.734c-3.2467,0-5.8769-2.6232-5.8769-5.8547v-0.9815z"
     id="path11" />
</svg>
